<?xml version="1.0" encoding="UTF-8" standalone="no"?>
<!DOCTYPE svg PUBLIC "-//W3C//DTD SVG 1.1//EN" "http://www.w3.org/Graphics/SVG/1.1/DTD/svg11.dtd">
<svg width="100%" height="100%" viewBox="0 0 200 200" version="1.1" xmlns="http://www.w3.org/2000/svg" xmlns:xlink="http://www.w3.org/1999/xlink" xml:space="preserve" xmlns:serif="http://www.serif.com/" style="fill-rule:evenodd;clip-rule:evenodd;stroke-linejoin:round;stroke-miterlimit:2;">
    <g transform="matrix(0.923242,0,0,1.33436,65.7456,-66.8714)">
        <rect x="6.691" y="125.058" width="60.822" height="74.942" style="fill:rgb(59,130,246);"/>
    </g>
    <g transform="matrix(0.923242,0,0,0.80635,-6.17747,38.7301)">
        <rect x="6.691" y="125.058" width="60.822" height="74.942" style="fill:rgb(59,130,246);"/>
    </g>
    <g transform="matrix(0.923242,0,0,0.307832,-6.17747,78.0042)">
        <rect x="6.691" y="125.058" width="60.822" height="74.942" style="fill:rgb(74,222,128);"/>
    </g>
    <g transform="matrix(0.923242,0,0,0.532501,65.7456,-6.50029)">
        <rect x="6.691" y="125.058" width="60.822" height="74.942" style="fill:rgb(74,222,128);"/>
    </g>
    <g transform="matrix(0.923242,0,0,0.952318,137.669,-119.095)">
        <rect x="6.691" y="125.058" width="60.822" height="74.942" style="fill:rgb(74,222,128);"/>
    </g>
    <g transform="matrix(0.923242,0,0,1.7164,137.669,-143.279)">
        <rect x="6.691" y="125.058" width="60.822" height="74.942" style="fill:rgb(59,130,246);"/>
    </g>
</svg>
